<?xml version="1.0" encoding="utf-8"?>
<!-- Generator: Adobe Illustrator 24.3.0, SVG Export Plug-In . SVG Version: 6.00 Build 0)  -->
<svg version="1.1" id="Слой_1" xmlns="http://www.w3.org/2000/svg" xmlns:xlink="http://www.w3.org/1999/xlink" x="0px" y="0px"
	 viewBox="0 0 595.3 841.9" style="enable-background:new 0 0 595.3 841.9;" xml:space="preserve">
<style type="text/css">
	.st0{fill:#1D1D1B;}
</style>
<g>
	<path class="st0" d="M339.6,429.9L339.6,429.9c-4.9,4.9-12.9,4.9-17.9,0l-66.1-66.1c-4.9-4.9-4.9-12.9,0-17.9l0,0
		c4.9-4.9,12.9-4.9,17.9,0l66.1,66.1C344.5,417,344.5,424.9,339.6,429.9z"/>
	<path class="st0" d="M339.6,412L339.6,412c4.9,4.9,4.9,12.9,0,17.9L273.5,496c-4.9,4.9-12.9,4.9-17.9,0l0,0
		c-4.9-4.9-4.9-12.9,0-17.9l66.1-66.1C326.7,407.1,334.7,407.1,339.6,412z"/>
	<path class="st0" d="M330.7,433.6H170.3c-7,0-12.6-5.7-12.6-12.6l0,0c0-7,5.7-12.6,12.6-12.6h160.4c7,0,12.6,5.7,12.6,12.6l0,0
		C343.3,427.9,337.7,433.6,330.7,433.6z"/>
</g>
</svg>
