<?xml version="1.0" encoding="utf-8"?>
<!-- Generator: Adobe Illustrator 24.3.0, SVG Export Plug-In . SVG Version: 6.00 Build 0)  -->
<svg version="1.1" id="Слой_1" xmlns="http://www.w3.org/2000/svg" xmlns:xlink="http://www.w3.org/1999/xlink" x="0px" y="0px"
	 viewBox="0 0 595.3 841.9" style="enable-background:new 0 0 595.3 841.9;" xml:space="preserve">
<style type="text/css">
	.st0{fill:#1D1D1B;}
</style>
<g>
	<path class="st0" d="M161.4,412L161.4,412c4.9-4.9,12.9-4.9,17.9,0l66.1,66.1c4.9,4.9,4.9,12.9,0,17.9l0,0
		c-4.9,4.9-12.9,4.9-17.9,0l-66.1-66.1C156.5,424.9,156.5,416.9,161.4,412z"/>
	<path class="st0" d="M161.4,429.9L161.4,429.9c-4.9-4.9-4.9-12.9,0-17.9l66.1-66.1c4.9-4.9,12.9-4.9,17.9,0l0,0
		c4.9,4.9,4.9,12.9,0,17.9l-66.1,66.1C174.3,434.8,166.3,434.8,161.4,429.9z"/>
	<path class="st0" d="M170.3,408.3h160.4c7,0,12.6,5.7,12.6,12.6v0c0,7-5.7,12.6-12.6,12.6H170.3c-7,0-12.6-5.7-12.6-12.6v0
		C157.7,414,163.3,408.3,170.3,408.3z"/>
</g>
</svg>
